
      <svg data-logo="logo" xmlns="http://www.w3.org/2000/svg" viewBox="0 0 245 43">
        <g id="logogram" transform="translate(0, 1) rotate(0) "><path d="M37.8473 40.43C44.2801 40.2989 49.4526 35.0373 49.4526 28.5688C49.4526 25.4231 48.2038 22.4061 45.9809 20.1818L26.2421 0.429993V12.707C26.2421 14.7603 27.0573 16.7295 28.5082 18.1814L33.1321 22.8084L33.1448 22.8207L40.8979 30.5789C41.1497 30.8309 41.1497 31.2394 40.8979 31.4913C40.6461 31.7433 40.2379 31.7433 39.9861 31.4913L37.3136 28.8171H12.5917L9.91919 31.4913C9.6674 31.7433 9.25918 31.7433 9.00739 31.4913C8.75561 31.2394 8.75561 30.8309 9.00739 30.5789L16.7605 22.8207L16.7732 22.8084L21.3971 18.1814C22.848 16.7295 23.6631 14.7603 23.6631 12.707V0.429993L3.92439 20.1818C1.70146 22.4061 0.452637 25.4231 0.452637 28.5688C0.452637 35.0373 5.62516 40.2989 12.058 40.43H37.8473Z" fill="#007674"/></g>
        <g id="logotype" transform="translate(56, 7.5)"><path fill="#121211" d="M17.06 28.25Q14.37 28.25 12.23 27.37Q10.10 26.50 8.82 24.78Q7.54 23.06 7.47 20.65L7.47 20.65L13.84 20.65Q13.98 22.02 14.79 22.73Q15.59 23.45 16.89 23.45L16.89 23.45Q18.22 23.45 18.98 22.84Q19.76 22.23 19.76 21.14L19.76 21.14Q19.76 20.23 19.14 19.63Q18.53 19.04 17.64 18.66Q16.75 18.27 15.10 17.78L15.10 17.78Q12.72 17.04 11.21 16.31Q9.71 15.57 8.63 14.14Q7.54 12.70 7.54 10.39L7.54 10.39Q7.54 6.96 10.03 5.02Q12.51 3.08 16.50 3.08L16.50 3.08Q20.56 3.08 23.05 5.02Q25.53 6.96 25.71 10.43L25.71 10.43L19.23 10.43Q19.16 9.24 18.36 8.56Q17.55 7.87 16.29 7.87L16.29 7.87Q15.21 7.87 14.54 8.45Q13.88 9.03 13.88 10.11L13.88 10.11Q13.88 11.30 15.00 11.97Q16.12 12.63 18.50 13.40L18.50 13.40Q20.88 14.21 22.36 14.94Q23.85 15.68 24.94 17.08Q26.02 18.48 26.02 20.68L26.02 20.68Q26.02 22.79 24.95 24.50Q23.89 26.21 21.86 27.23Q19.83 28.25 17.06 28.25L17.06 28.25ZM32.71 6.44Q31.13 6.44 30.13 5.51Q29.14 4.58 29.14 3.22L29.14 3.22Q29.14 1.82 30.13 0.89Q31.13-0.04 32.71-0.04L32.71-0.04Q34.25-0.04 35.24 0.89Q36.24 1.82 36.24 3.22L36.24 3.22Q36.24 4.58 35.24 5.51Q34.25 6.44 32.71 6.44L32.71 6.44ZM29.70 8.47L35.68 8.47L35.68 28L29.70 28L29.70 8.47ZM48.77 22.93L50.91 22.93L50.91 28L47.86 28Q44.61 28 42.79 26.41Q40.97 24.81 40.97 21.21L40.97 21.21L40.97 13.44L38.59 13.44L38.59 8.47L40.97 8.47L40.97 3.71L46.95 3.71L46.95 8.47L50.87 8.47L50.87 13.44L46.95 13.44L46.95 21.28Q46.95 22.16 47.37 22.54Q47.79 22.93 48.77 22.93L48.77 22.93ZM72.64 17.92Q72.64 18.76 72.53 19.67L72.53 19.67L58.99 19.67Q59.13 21.49 60.16 22.45Q61.20 23.41 62.70 23.41L62.70 23.41Q64.94 23.41 65.81 21.52L65.81 21.52L72.19 21.52Q71.70 23.45 70.42 24.99Q69.14 26.53 67.22 27.41Q65.29 28.28 62.91 28.28L62.91 28.28Q60.04 28.28 57.80 27.05Q55.56 25.83 54.30 23.55Q53.04 21.28 53.04 18.23L53.04 18.23Q53.04 15.19 54.28 12.91Q55.53 10.64 57.77 9.41Q60.01 8.19 62.91 8.19L62.91 8.19Q65.75 8.19 67.95 9.38Q70.16 10.57 71.40 12.77Q72.64 14.98 72.64 17.92L72.64 17.92ZM59.03 16.34L66.52 16.34Q66.52 14.80 65.47 13.89Q64.42 12.98 62.84 12.98L62.84 12.98Q61.34 12.98 60.30 13.86Q59.27 14.73 59.03 16.34L59.03 16.34ZM84.68 28.25Q81.98 28.25 79.85 27.37Q77.72 26.50 76.44 24.78Q75.16 23.06 75.09 20.65L75.09 20.65L81.46 20.65Q81.60 22.02 82.41 22.73Q83.21 23.45 84.51 23.45L84.51 23.45Q85.84 23.45 86.61 22.84Q87.38 22.23 87.38 21.14L87.38 21.14Q87.38 20.23 86.76 19.63Q86.15 19.04 85.26 18.66Q84.37 18.27 82.72 17.78L82.72 17.78Q80.34 17.04 78.84 16.31Q77.33 15.57 76.25 14.14Q75.16 12.70 75.16 10.39L75.16 10.39Q75.16 6.96 77.65 5.02Q80.13 3.08 84.12 3.08L84.12 3.08Q88.18 3.08 90.67 5.02Q93.15 6.96 93.33 10.43L93.33 10.43L86.85 10.43Q86.78 9.24 85.98 8.56Q85.17 7.87 83.91 7.87L83.91 7.87Q82.83 7.87 82.16 8.45Q81.50 9.03 81.50 10.11L81.50 10.11Q81.50 11.30 82.62 11.97Q83.73 12.63 86.12 13.40L86.12 13.40Q88.50 14.21 89.98 14.94Q91.47 15.68 92.56 17.08Q93.64 18.48 93.64 20.68L93.64 20.68Q93.64 22.79 92.57 24.50Q91.51 26.21 89.48 27.23Q87.45 28.25 84.68 28.25L84.68 28.25ZM106.07 22.93L108.20 22.93L108.20 28L105.16 28Q101.90 28 100.08 26.41Q98.26 24.81 98.26 21.21L98.26 21.21L98.26 13.44L95.88 13.44L95.88 8.47L98.26 8.47L98.26 3.71L104.25 3.71L104.25 8.47L108.17 8.47L108.17 13.44L104.25 13.44L104.25 21.28Q104.25 22.16 104.67 22.54Q105.09 22.93 106.07 22.93L106.07 22.93ZM124.83 8.47L130.81 8.47L130.81 28L124.83 28L124.83 25.34Q123.92 26.63 122.36 27.42Q120.80 28.21 118.91 28.21L118.91 28.21Q116.67 28.21 114.96 27.21Q113.24 26.21 112.30 24.32Q111.35 22.43 111.35 19.88L111.35 19.88L111.35 8.47L117.30 8.47L117.30 19.07Q117.30 21.04 118.32 22.12Q119.33 23.20 121.05 23.20L121.05 23.20Q122.80 23.20 123.81 22.12Q124.83 21.04 124.83 19.07L124.83 19.07L124.83 8.47ZM133.93 18.20Q133.93 15.19 135.06 12.91Q136.20 10.64 138.16 9.41Q140.12 8.19 142.54 8.19L142.54 8.19Q144.46 8.19 146.05 8.99Q147.65 9.80 148.56 11.16L148.56 11.16L148.56 2.10L154.54 2.10L154.54 28L148.56 28L148.56 25.20Q147.72 26.60 146.16 27.44Q144.60 28.28 142.54 28.28L142.54 28.28Q140.12 28.28 138.16 27.04Q136.20 25.80 135.06 23.50Q133.93 21.21 133.93 18.20L133.93 18.20ZM148.56 18.23Q148.56 15.99 147.31 14.70Q146.07 13.40 144.29 13.40L144.29 13.40Q142.50 13.40 141.26 14.68Q140.02 15.96 140.02 18.20L140.02 18.20Q140.02 20.44 141.26 21.75Q142.50 23.06 144.29 23.06L144.29 23.06Q146.07 23.06 147.31 21.77Q148.56 20.48 148.56 18.23L148.56 18.23ZM161.89 6.44Q160.32 6.44 159.32 5.51Q158.32 4.58 158.32 3.22L158.32 3.22Q158.32 1.82 159.32 0.89Q160.32-0.04 161.89-0.04L161.89-0.04Q163.43-0.04 164.43 0.89Q165.43 1.82 165.43 3.22L165.43 3.22Q165.43 4.58 164.43 5.51Q163.43 6.44 161.89 6.44L161.89 6.44ZM158.88 8.47L164.87 8.47L164.87 28L158.88 28L158.88 8.47ZM178.10 28.28Q175.23 28.28 172.93 27.05Q170.64 25.83 169.33 23.55Q168.02 21.28 168.02 18.23L168.02 18.23Q168.02 15.22 169.35 12.93Q170.68 10.64 172.99 9.41Q175.30 8.19 178.17 8.19L178.17 8.19Q181.04 8.19 183.35 9.41Q185.66 10.64 186.99 12.93Q188.32 15.22 188.32 18.23L188.32 18.23Q188.32 21.24 186.97 23.54Q185.62 25.83 183.29 27.05Q180.97 28.28 178.10 28.28L178.10 28.28ZM178.10 23.10Q179.81 23.10 181.02 21.84Q182.23 20.58 182.23 18.23L182.23 18.23Q182.23 15.89 181.05 14.63Q179.88 13.37 178.17 13.37L178.17 13.37Q176.42 13.37 175.26 14.61Q174.11 15.85 174.11 18.23L174.11 18.23Q174.11 20.58 175.24 21.84Q176.38 23.10 178.10 23.10L178.10 23.10Z"/></g>
        
      </svg>
    